<svg width="540" height="540" viewBox="0 0 540 540" fill="none" xmlns="http://www.w3.org/2000/svg">
<rect x="276" y="414" width="163" height="33" rx="8" fill="#1A84DB"/>
<rect x="277" y="353" width="247" height="33" rx="8" fill="#1A84DB"/>
<rect x="192" y="40" width="52" height="460" rx="26" fill="#1A84DB"/>
<rect x="16" y="213" width="114" height="52" rx="26" fill="#1A84DB"/>
<rect x="118.224" y="109.356" width="46.761" height="143.109" rx="23.3805" transform="rotate(14.6826 118.224 109.356)" fill="#1A84DB"/>
<path d="M120 124.5C129 104.5 161 118.5 162 139C163 159.5 162.37 244 193.87 290C225.37 336 193.5 369.5 193.5 369.5C131 297.5 111 144.5 120 124.5Z" fill="#1A84DB"/>
<path d="M404.92 297.5C406.387 300.287 407.12 302.78 407.12 304.98C407.267 307.033 406.68 308.867 405.36 310.48C404.04 311.947 401.84 313.487 398.76 315.1C394.067 317.3 390.4 317.887 387.76 316.86C385.267 315.833 382.92 312.973 380.72 308.28L331.66 204.66L282.82 308.28C280.62 312.827 278.2 315.54 275.56 316.42C272.92 317.447 269.253 316.933 264.56 314.88C261.627 313.413 259.427 311.873 257.96 310.26C256.64 308.647 256.053 306.74 256.2 304.54C256.493 302.193 257.447 299.407 259.06 296.18L319.56 170.12C320.733 167.773 322.42 165.94 324.62 164.62C326.967 163.153 329.387 162.42 331.88 162.42C333.64 162.42 335.253 162.713 336.72 163.3C338.187 163.887 339.507 164.767 340.68 165.94C342 167.113 343.1 168.58 343.98 170.34L404.92 297.5ZM292.5 276.16L303.06 253.5H360.48L371.04 276.16H292.5Z" fill="#1A84DB"/>
</svg>
