<svg width="680" height="680" viewBox="0 0 680 680" fill="none" xmlns="http://www.w3.org/2000/svg">
<rect x="4" y="7" width="672" height="666" rx="112" fill="#1A84DB"/>
<rect x="341" y="481" width="163" height="33" rx="8" fill="white"/>
<rect x="342" y="420" width="247" height="33" rx="8" fill="white"/>
<rect x="257" y="107" width="52" height="460" rx="26" fill="white"/>
<rect x="81" y="280" width="114" height="52" rx="26" fill="white"/>
<rect x="183.224" y="176.356" width="46.761" height="143.109" rx="23.3805" transform="rotate(14.6826 183.224 176.356)" fill="white"/>
<path d="M185 191.5C194 171.5 226 185.5 227 206C228 226.5 227.37 311 258.87 357C290.37 403 258.5 436.5 258.5 436.5C196 364.5 176 211.5 185 191.5Z" fill="white"/>
<path d="M469.92 364.5C471.387 367.287 472.12 369.78 472.12 371.98C472.267 374.033 471.68 375.867 470.36 377.48C469.04 378.947 466.84 380.487 463.76 382.1C459.067 384.3 455.4 384.887 452.76 383.86C450.267 382.833 447.92 379.973 445.72 375.28L396.66 271.66L347.82 375.28C345.62 379.827 343.2 382.54 340.56 383.42C337.92 384.447 334.253 383.933 329.56 381.88C326.627 380.413 324.427 378.873 322.96 377.26C321.64 375.647 321.053 373.74 321.2 371.54C321.493 369.193 322.447 366.407 324.06 363.18L384.56 237.12C385.733 234.773 387.42 232.94 389.62 231.62C391.967 230.153 394.387 229.42 396.88 229.42C398.64 229.42 400.253 229.713 401.72 230.3C403.187 230.887 404.507 231.767 405.68 232.94C407 234.113 408.1 235.58 408.98 237.34L469.92 364.5ZM357.5 343.16L368.06 320.5H425.48L436.04 343.16H357.5Z" fill="white"/>
</svg>
